PathFileType	4	(X/Y/Z)	s01c0302.trc
DataRate	CameraRate	NumFrames	NumMarkers	Units	OrigDataRate	OrigDataStartFrame	OrigNumFrames
200	200	4	48	mm	200	1250	2000
Frame#	Time	racr			lacr			c7			jug			rlel			rdr			llel			ldr			s2			lic			ric			lasi			rasi			rpsi			lpsi			rgt			lgt			rth1			rth2			rth3			rth4			rlfc			rsh1			rsh2			rsh3			rsh4			rlmal			rmmal			rcal			rtoe			rmt5			lth1			lth2			lth4			lth3			llfc			lsh1			lsh2			lsh3			lsh4			llmal			lmmal			lcal			ltoe			lmt5			SBIKE			LBIKE			RBIKE			
		X1	Y1	Z1	X2	Y2	Z2	X3	Y3	Z3	X4	Y4	Z4	X5	Y5	Z5	X6	Y6	Z6	X7	Y7	Z7	X8	Y8	Z8	X9	Y9	Z9	X10	Y10	Z10	X11	Y11	Z11	X12	Y12	Z12	X13	Y13	Z13	X14	Y14	Z14	X15	Y15	Z15	X16	Y16	Z16	X17	Y17	Z17	X18	Y18	Z18	X19	Y19	Z19	X20	Y20	Z20	X21	Y21	Z21	X22	Y22	Z22	X23	Y23	Z23	X24	Y24	Z24	X25	Y25	Z25	X26	Y26	Z26	X27	Y27	Z27	X28	Y28	Z28	X29	Y29	Z29	X30	Y30	Z30	X31	Y31	Z31	X32	Y32	Z32	X33	Y33	Z33	X34	Y34	Z34	X35	Y35	Z35	X36	Y36	Z36	X37	Y37	Z37	X38	Y38	Z38	X39	Y39	Z39	X40	Y40	Z40	X41	Y41	Z41	X42	Y42	Z42	X43	Y43	Z43	X44	Y44	Z44	X45	Y45	Z45	X46	Y46	Z46	X47	Y47	Z47	X48	Y48	Z48	
1250	6.2500	713.163300	1369.854558	-135.457534	731.953113	1323.401339	-461.638044	690.344596	1433.364649	-302.329784	675.910594	1271.370726	-292.799778	631.907562	1098.622433	-24.359080	735.287065	867.357009	-87.208788	641.889966	1064.476453	-575.697071	745.645232	867.947469	-488.835037	0.000000	0.000000	-0.000000	323.398457	1194.185154	-453.475987	301.899863	1236.206391	-130.275892	316.209613	1146.013376	-425.464238	328.913331	1187.016084	-157.439848	173.477189	1268.136178	-245.649013	176.635857	1256.710907	-352.957035	257.163086	1139.844574	-89.314243	226.763260	1064.396153	-463.992518	357.906326	1063.688416	-67.598925	433.173129	1029.855895	-69.896539	512.539784	987.007269	-75.690410	457.986919	1077.250924	-89.862391	584.163146	909.655075	-97.861716	505.230827	835.743851	-71.253069	446.145486	774.381445	-75.826867	377.784215	718.219911	-89.736152	480.480965	741.440772	-112.777337	267.014079	640.151716	-114.985360	310.926653	627.174151	-190.672686	213.842130	641.336487	-170.936196	403.065426	447.474547	-146.476080	305.353249	498.992313	-81.259849	225.927587	946.468326	-470.399624	254.989935	861.823263	-472.784122	306.781138	878.965712	-475.228432	278.891842	781.035707	-455.262875	304.297938	660.187868	-437.054088	231.288159	577.237488	-467.359847	203.185070	496.500880	-458.192514	172.521522	416.704539	-443.536423	257.918091	479.328846	-436.931748	136.452045	297.455828	-426.005979	167.823680	296.043811	-353.786525	89.935841	299.929289	-385.281098	298.349619	117.290330	-380.320843	201.513371	158.096079	-449.562617	-230.198923	890.379840	-256.926097	-22.915856	80.048606	-456.656269	-22.944074	80.499920	-56.380700	
1251	6.2550	712.344898	1370.019386	-134.590960	731.796975	1324.098717	-461.080564	689.830837	1433.745021	-301.872774	675.640894	1271.746264	-291.994914	627.907358	1099.597834	-22.322005	734.505919	868.981110	-86.845309	642.101612	1065.105929	-575.028595	745.775532	867.580334	-488.988254	0.000000	0.000000	-0.000000	323.172143	1196.124548	-454.154889	300.071501	1238.311890	-130.450490	316.517875	1147.285361	-425.881793	328.000381	1188.832927	-157.419801	172.787879	1268.865088	-247.067737	176.410842	1257.784786	-354.083986	255.507559	1140.939733	-90.576660	228.332460	1065.532742	-465.376861	356.160584	1064.298290	-69.400203	431.740656	1030.243195	-72.095543	511.066199	987.875744	-76.711619	456.383846	1078.121323	-90.696167	583.152915	911.634000	-98.847288	507.297626	836.484769	-72.876485	449.057913	774.077556	-76.689470	381.556662	717.103035	-90.655769	483.472291	741.474710	-113.938615	270.143136	635.701181	-114.950881	314.135829	624.300656	-190.592424	216.227047	634.387018	-170.302178	413.232105	448.657099	-146.444874	313.596414	495.744379	-80.848322	228.221047	947.651983	-471.395797	257.675513	863.219321	-472.822129	309.212727	880.415104	-475.540388	281.597559	782.478742	-455.112520	306.503881	661.581370	-437.053223	231.582010	580.080400	-467.161415	201.744738	499.976738	-457.872359	169.347314	420.876127	-442.937945	256.204300	481.709024	-436.580480	130.783023	302.580564	-425.665308	161.832624	300.181529	-352.816342	84.146062	306.019619	-384.567283	288.123303	118.441630	-380.371493	192.357566	161.916195	-449.318129	-230.330506	890.388199	-256.970816	-22.945917	80.072120	-456.664887	-22.975250	80.525617	-56.401185	
1252	6.2600	711.378638	1370.109365	-133.612200	731.632180	1324.631713	-460.442062	689.332640	1434.094797	-301.347684	675.302252	1272.068202	-291.013496	623.788859	1100.833270	-20.256834	733.757419	870.659827	-86.349664	642.348157	1065.641871	-574.515261	745.754291	867.394902	-489.122357	0.000000	0.000000	-0.000000	322.617731	1198.369731	-455.036616	298.580734	1240.343665	-130.700527	316.698574	1148.917279	-426.330230	327.015469	1190.823240	-157.183129	172.206139	1269.480490	-248.192699	176.031598	1258.853641	-354.895628	253.876319	1141.976106	-91.846405	229.749700	1067.030068	-466.581552	354.577363	1064.523174	-71.059862	430.141947	1030.361740	-73.503024	509.342668	987.922615	-77.848139	454.958469	1078.344577	-91.725672	581.858561	912.224735	-100.271506	508.518315	835.731986	-74.917641	450.718393	772.763358	-77.767327	383.507564	715.323388	-90.774638	485.029111	739.947460	-115.102918	273.146182	630.362102	-114.414404	317.046726	620.318193	-190.425325	218.338925	626.577534	-169.296783	422.926128	449.346774	-146.310724	321.667427	491.899286	-80.191455	230.841242	948.785176	-472.244840	261.182003	864.692458	-472.581786	312.365557	882.252263	-475.591077	285.378556	784.132516	-454.760746	309.701891	663.107206	-437.330638	232.552596	583.107354	-466.586328	201.066614	503.856956	-457.358290	166.811227	425.604522	-442.255472	255.148067	484.364688	-436.168652	125.671462	308.575373	-425.459349	156.446809	305.022403	-351.827063	78.901409	312.751640	-383.828310	278.009942	120.039033	-380.459709	183.531675	166.360240	-449.058014	-230.470000	890.402029	-256.979785	-22.973847	80.111801	-456.659330	-22.995243	80.539255	-56.419840	
1253	6.2650	710.244140	1370.161668	-132.463916	731.532705	1325.075352	-459.778248	688.876296	1434.451162	-300.734031	674.855852	1272.306047	-290.132306	620.035084	1102.022701	-18.418616	733.067690	872.310890	-85.759333	642.703870	1066.275476	-574.293305	745.695938	866.478816	-489.605639	0.000000	0.000000	-0.000000	321.847334	1200.950742	-456.120155	297.390224	1242.221216	-130.892192	316.653717	1150.805862	-427.037564	326.281430	1192.501852	-157.244221	171.463415	1270.129463	-248.949332	175.643460	1259.909523	-355.355278	252.340325	1142.828198	-93.022676	230.981255	1068.511002	-467.523236	353.092710	1064.387006	-72.970155	428.637962	1029.910738	-74.919650	507.323811	987.239342	-79.103175	453.719003	1077.951795	-92.673506	580.512056	911.374354	-102.300201	508.416293	833.768951	-77.007998	451.124298	770.355765	-78.922376	384.439393	712.039480	-90.828911	485.663324	737.083025	-115.737064	275.875836	623.597898	-113.397109	319.051061	615.597582	-189.768304	220.184358	617.919820	-168.167018	431.728247	449.331620	-146.398176	329.047075	487.038665	-79.784702	233.764789	949.783201	-472.875356	265.361944	866.088106	-472.237184	316.545638	884.295533	-475.394748	290.117372	785.959461	-454.312192	313.635809	664.935761	-437.311283	234.486041	586.618632	-466.327448	201.089282	508.072512	-456.817717	165.021435	430.766662	-441.643037	254.828840	487.334805	-435.642528	121.113754	314.876857	-425.329211	151.831609	310.387329	-351.078475	74.174320	320.058838	-383.142078	268.178041	122.102260	-380.395954	175.067795	171.326041	-448.764916	-230.570189	890.434311	-256.967636	-22.998524	80.163971	-456.647373	-23.033901	80.584373	-56.404971	
